<svg width="477" height="697" viewBox="0 0 477 697" fill="none" xmlns="http://www.w3.org/2000/svg">
<path d="M374.725 74.2258C378.563 75.6161 382.764 75.7009 386.317 77.7218C390.147 79.9005 393.952 82.5438 396.129 86.4018C398.326 90.2946 398.282 94.9938 398.585 99.4644C398.893 103.991 399.602 108.7 397.929 112.91C396.259 117.111 392.946 120.551 389.212 123.052C385.69 125.41 381.159 125.205 377.23 126.772C373.249 128.358 370.02 131.605 365.81 132.38C361.251 133.219 356.247 133.475 352.093 131.397C347.937 129.318 345.305 125.028 342.993 120.964C340.839 117.177 340.582 112.72 339.127 108.607C337.549 104.145 333.993 100.275 334 95.5363C334.007 90.7315 336.646 86.3438 339.166 82.2696C341.713 78.1533 344.581 73.9887 348.784 71.6382C352.934 69.3177 357.919 68.6734 362.639 69.1442C367.03 69.5821 370.572 72.7213 374.725 74.2258Z" fill="#2F462D"/>
<path d="M128.725 5.22578C132.563 6.61607 136.764 6.70086 140.317 8.72183C144.147 10.9005 147.952 13.5438 150.129 17.4018C152.326 21.2946 152.282 25.9938 152.585 30.4644C152.893 34.9906 153.602 39.6999 151.929 43.91C150.259 48.111 146.946 51.5506 143.212 54.0515C139.69 56.4096 135.159 56.2052 131.23 57.7717C127.249 59.3584 124.02 62.6053 119.81 63.38C115.251 64.2191 110.247 64.4753 106.093 62.3974C101.937 60.3177 99.3048 56.0275 96.9931 51.9641C94.8387 48.1774 94.582 43.7196 93.1273 39.6065C91.5492 35.1446 87.993 31.2746 88 26.5363C88.0071 21.7315 90.6458 17.3438 93.1663 13.2696C95.7128 9.15328 98.5809 4.98866 102.784 2.6382C106.934 0.31774 111.919 -0.326629 116.639 0.14418C121.03 0.582115 124.572 3.72135 128.725 5.22578Z" fill="#2F462D"/>
<path d="M450.858 148.634C454.991 150.133 459.516 150.224 463.342 152.403C467.466 154.752 471.564 157.602 473.908 161.761C476.274 165.958 476.227 171.025 476.554 175.844C476.885 180.724 477.648 185.801 475.847 190.34C474.049 194.87 470.48 198.578 466.459 201.274C462.666 203.817 457.787 203.596 453.555 205.285C449.268 206.996 445.791 210.496 441.257 211.332C436.347 212.236 430.958 212.512 426.485 210.272C422.009 208.03 419.174 203.405 416.685 199.024C414.365 194.941 414.088 190.135 412.522 185.701C410.822 180.89 406.992 176.718 407 171.609C407.008 166.429 409.849 161.699 412.564 157.306C415.306 152.868 418.395 148.378 422.922 145.844C427.391 143.343 432.759 142.648 437.842 143.155C442.57 143.628 446.386 147.012 450.858 148.634Z" fill="#2F462D"/>
<path d="M423.701 231.919C426.594 232.962 429.761 233.026 432.439 234.541C435.326 236.175 438.195 238.158 439.836 241.051C441.492 243.971 441.459 247.495 441.688 250.848C441.919 254.243 442.454 257.775 441.193 260.932C439.934 264.083 437.436 266.663 434.621 268.539C431.967 270.307 428.551 270.154 425.588 271.329C422.588 272.519 420.154 274.954 416.98 275.535C413.543 276.164 409.77 276.357 406.64 274.798C403.506 273.238 401.522 270.021 399.779 266.973C398.155 264.133 397.962 260.79 396.865 257.705C395.676 254.358 392.995 251.456 393 247.902C393.005 244.299 394.995 241.008 396.895 237.952C398.814 234.865 400.976 231.741 404.145 229.979C407.273 228.238 411.032 227.755 414.59 228.108C417.899 228.437 420.57 230.791 423.701 231.919Z" fill="#2F462D"/>
<path d="M417.701 502.919C420.594 503.962 423.761 504.026 426.439 505.541C429.326 507.175 432.195 509.158 433.836 512.051C435.492 514.971 435.459 518.495 435.688 521.848C435.919 525.243 436.454 528.775 435.193 531.932C433.934 535.083 431.436 537.663 428.621 539.539C425.967 541.307 422.551 541.154 419.588 542.329C416.588 543.519 414.154 545.954 410.98 546.535C407.543 547.164 403.77 547.357 400.64 545.798C397.506 544.238 395.522 541.021 393.779 537.973C392.155 535.133 391.962 531.79 390.865 528.705C389.676 525.358 386.995 522.456 387 518.902C387.005 515.299 388.995 512.008 390.895 508.952C392.814 505.865 394.976 502.741 398.145 500.979C401.273 499.238 405.032 498.755 408.59 499.108C411.899 499.437 414.57 501.791 417.701 502.919Z" fill="#2F462D"/>
<path d="M243.701 574.919C246.594 575.962 249.761 576.026 252.439 577.541C255.326 579.175 258.195 581.158 259.836 584.051C261.492 586.971 261.459 590.495 261.688 593.848C261.919 597.243 262.454 600.775 261.193 603.932C259.934 607.083 257.436 609.663 254.621 611.539C251.967 613.307 248.551 613.154 245.588 614.329C242.588 615.519 240.154 617.954 236.98 618.535C233.543 619.164 229.77 619.357 226.64 617.798C223.506 616.238 221.522 613.021 219.779 609.973C218.155 607.133 217.962 603.79 216.865 600.705C215.676 597.358 212.995 594.456 213 590.902C213.005 587.299 214.995 584.008 216.895 580.952C218.814 577.865 220.976 574.741 224.145 572.979C227.273 571.238 231.032 570.755 234.59 571.108C237.899 571.437 240.57 573.791 243.701 574.919Z" fill="#2F462D"/>
<path d="M450.043 0.0769877C453.53 0.482616 456.564 2.60802 459.394 4.70207C462.064 6.67741 464.334 9.12121 466.09 11.9515C467.784 14.682 468.345 17.8659 469.44 20.8918C470.671 24.296 473.174 27.4113 472.99 31.0301C472.805 34.6832 470.522 37.8741 468.426 40.8597C466.322 43.8558 464.015 46.9252 460.726 48.4997C457.485 50.0513 453.709 49.268 450.137 49.6149C446.61 49.9575 442.961 51.8533 439.663 50.5454C436.347 49.2303 434.951 45.3139 432.565 42.6453C430.401 40.2251 427.64 38.3453 426.165 35.446C424.665 32.4968 423.844 29.1607 424.025 25.8515C424.203 22.6008 425.832 19.6873 427.19 16.7335C428.529 13.8215 429.867 10.9236 431.988 8.53009C434.218 6.01354 436.829 3.85178 439.865 2.43043C443.056 0.936 446.547 -0.329669 450.043 0.0769877Z" fill="#2F462D"/>
<path d="M363.043 571.077C366.53 571.483 369.564 573.608 372.394 575.702C375.064 577.677 377.334 580.121 379.09 582.952C380.784 585.682 381.345 588.866 382.44 591.892C383.671 595.296 386.174 598.411 385.99 602.03C385.805 605.683 383.522 608.874 381.426 611.86C379.322 614.856 377.015 617.925 373.726 619.5C370.485 621.051 366.709 620.268 363.137 620.615C359.61 620.957 355.961 622.853 352.663 621.545C349.347 620.23 347.951 616.314 345.565 613.645C343.401 611.225 340.64 609.345 339.165 606.446C337.665 603.497 336.844 600.161 337.025 596.851C337.203 593.601 338.832 590.687 340.19 587.734C341.529 584.822 342.867 581.924 344.988 579.53C347.218 577.014 349.829 574.852 352.865 573.43C356.056 571.936 359.547 570.67 363.043 571.077Z" fill="#2F462D"/>
<path d="M442.728 69.0619C445.503 69.388 447.918 71.0966 450.171 72.7801C452.295 74.3681 454.103 76.3327 455.5 78.6081C456.849 80.8032 457.295 83.3627 458.166 85.7953C459.146 88.5321 461.139 91.0365 460.992 93.9458C460.845 96.8825 459.028 99.4478 457.359 101.848C455.685 104.257 453.849 106.724 451.231 107.99C448.651 109.237 445.646 108.608 442.803 108.886C439.996 109.162 437.091 110.686 434.467 109.635C431.827 108.577 430.716 105.429 428.817 103.284C427.095 101.338 424.897 99.8266 423.723 97.4958C422.53 95.1249 421.876 92.4429 422.02 89.7826C422.161 87.1693 423.458 84.827 424.539 82.4524C425.604 80.1114 426.67 77.7817 428.358 75.8575C430.133 73.8344 432.211 72.0965 434.627 70.9539C437.167 69.7525 439.945 68.735 442.728 69.0619Z" fill="#2F462D"/>
<path d="M233.547 10.4178C236.792 10.8475 239.915 11.6213 242.95 12.8435C246.35 14.2125 250.178 15.2158 252.494 18.0478C254.826 20.8981 255.278 24.8213 255.733 28.4705C256.177 32.0302 256.129 35.654 255.117 39.0965C254.121 42.4868 251.986 45.3379 249.931 48.216C247.808 51.1882 246.092 54.8079 242.782 56.3666C239.475 57.9243 235.585 56.4897 231.932 56.692C228.319 56.8921 224.607 58.8573 221.231 57.5601C217.852 56.2615 216.022 52.6597 213.875 49.7533C211.942 47.1367 210.79 44.1493 209.22 41.3017C207.47 38.1279 204.304 35.4969 204.024 31.8863C203.745 28.2817 205.947 24.967 207.711 21.8076C209.425 18.7365 211.339 15.6749 214.211 13.6362C217.022 11.641 220.492 10.8869 223.896 10.3203C227.104 9.78629 230.323 9.99078 233.547 10.4178Z" fill="#2F462D"/>
<path d="M324.547 4.41775C327.792 4.84747 330.915 5.62129 333.95 6.84355C337.35 8.21248 341.178 9.21583 343.494 12.0478C345.826 14.8981 346.278 18.8213 346.733 22.4705C347.177 26.0302 347.129 29.654 346.117 33.0965C345.121 36.4868 342.986 39.3379 340.931 42.216C338.808 45.1882 337.092 48.8079 333.782 50.3666C330.475 51.9243 326.585 50.4897 322.932 50.692C319.319 50.8921 315.607 52.8573 312.231 51.5601C308.852 50.2615 307.022 46.6597 304.875 43.7533C302.942 41.1367 301.79 38.1493 300.22 35.3017C298.47 32.1279 295.304 29.4969 295.024 25.8863C294.745 22.2817 296.947 18.967 298.711 15.8076C300.425 12.7365 302.339 9.67489 305.211 7.63619C308.022 5.64103 311.492 4.88691 314.896 4.3203C318.104 3.78629 321.323 3.99078 324.547 4.41775Z" fill="#2F462D"/>
<path d="M167.571 614.714C173.125 615.448 178.47 616.77 183.665 618.858C189.483 621.196 196.035 622.91 199.999 627.748C203.99 632.618 204.765 639.32 205.543 645.554C206.302 651.635 206.221 657.826 204.489 663.707C202.784 669.498 199.131 674.369 195.612 679.286C191.979 684.363 189.042 690.547 183.377 693.21C177.716 695.871 171.058 693.42 164.806 693.766C158.623 694.107 152.27 697.465 146.492 695.248C140.708 693.03 137.576 686.877 133.901 681.912C130.593 677.442 128.621 672.338 125.934 667.474C122.939 662.052 117.52 657.557 117.041 651.389C116.564 645.231 120.333 639.569 123.351 634.171C126.285 628.925 129.56 623.695 134.477 620.212C139.288 616.803 145.226 615.515 151.053 614.547C156.544 613.635 162.052 613.984 167.571 614.714Z" fill="#2F462D"/>
<path d="M410.297 332.331C412.855 332.671 415.318 333.284 417.711 334.251C420.391 335.335 423.409 336.129 425.236 338.371C427.074 340.628 427.431 343.734 427.79 346.622C428.139 349.441 428.102 352.309 427.304 355.035C426.519 357.719 424.835 359.976 423.215 362.254C421.541 364.607 420.188 367.473 417.578 368.707C414.97 369.94 411.903 368.804 409.023 368.965C406.175 369.123 403.248 370.679 400.586 369.652C397.922 368.624 396.479 365.772 394.786 363.471C393.262 361.4 392.354 359.035 391.116 356.781C389.736 354.268 387.239 352.185 387.019 349.327C386.799 346.473 388.535 343.849 389.926 341.348C391.277 338.916 392.786 336.493 395.051 334.879C397.267 333.299 400.003 332.702 402.687 332.254C405.217 331.831 407.754 331.993 410.297 332.331Z" fill="#2F462D"/>
<path d="M401.297 655.331C403.855 655.671 406.318 656.284 408.711 657.251C411.391 658.335 414.409 659.129 416.236 661.371C418.074 663.628 418.431 666.734 418.79 669.622C419.139 672.441 419.102 675.309 418.304 678.035C417.519 680.719 415.835 682.976 414.215 685.254C412.541 687.607 411.188 690.473 408.578 691.707C405.97 692.94 402.903 691.804 400.023 691.965C397.175 692.123 394.248 693.679 391.586 692.652C388.922 691.624 387.479 688.772 385.786 686.471C384.262 684.4 383.354 682.035 382.116 679.781C380.736 677.268 378.239 675.185 378.019 672.327C377.799 669.473 379.535 666.849 380.926 664.348C382.277 661.916 383.786 659.493 386.051 657.879C388.267 656.299 391.003 655.702 393.687 655.254C396.217 654.831 398.754 654.993 401.297 655.331Z" fill="#2F462D"/>
<path d="M390.727 12.9973C393.35 13.8014 396.6 12.9784 398.673 14.7725C400.746 16.5665 400.652 19.7857 401.558 22.3702C402.391 24.746 403.576 26.9817 403.832 29.4858C404.097 32.0879 404.179 34.839 403.071 37.2096C401.97 39.5664 399.683 41.0846 397.651 42.7127C395.714 44.2649 393.757 45.8597 391.378 46.578C389.03 47.2872 386.554 46.912 384.103 46.8052C381.573 46.6949 378.985 46.8873 376.638 45.9356C374.199 44.946 372.053 43.2882 370.396 41.2455C368.718 39.1768 367.334 36.7406 367.035 34.0958C366.743 31.5068 368.37 29.1335 368.737 26.5538C369.123 23.8343 367.884 20.7983 369.262 18.4207C370.63 16.0603 373.697 15.3837 376.032 13.968C378.376 12.5472 380.401 10.1906 383.137 10.0099C385.881 9.82864 388.098 12.1915 390.727 12.9973Z" fill="#2F462D"/>
<path d="M164.727 60.9973C167.35 61.8014 170.6 60.9784 172.673 62.7725C174.746 64.5665 174.652 67.7857 175.558 70.3702C176.391 72.746 177.576 74.9817 177.832 77.4858C178.097 80.0879 178.179 82.839 177.071 85.2096C175.97 87.5664 173.683 89.0846 171.651 90.7127C169.714 92.2649 167.757 93.8597 165.378 94.578C163.03 95.2872 160.554 94.912 158.103 94.8052C155.573 94.6949 152.985 94.8873 150.638 93.9356C148.199 92.946 146.053 91.2882 144.396 89.2455C142.718 87.1768 141.334 84.7406 141.035 82.0958C140.743 79.5068 142.37 77.1335 142.737 74.5538C143.123 71.8343 141.884 68.7983 143.262 66.4207C144.63 64.0603 147.697 63.3837 150.032 61.968C152.376 60.5472 154.401 58.1906 157.137 58.0099C159.881 57.8286 162.098 60.1915 164.727 60.9973Z" fill="#2F462D"/>
<path d="M451.171 578.832C456.276 580.397 462.599 578.796 466.634 582.287C470.668 585.778 470.484 592.042 472.247 597.072C473.868 601.695 476.175 606.045 476.672 610.918C477.189 615.982 477.348 621.335 475.193 625.948C473.05 630.535 468.6 633.489 464.646 636.657C460.876 639.678 457.067 642.781 452.439 644.179C447.87 645.559 443.05 644.829 438.281 644.621C433.357 644.406 428.322 644.781 423.756 642.929C419.008 641.003 414.832 637.777 411.608 633.802C408.343 629.776 405.649 625.036 405.068 619.889C404.499 614.851 407.667 610.233 408.38 605.213C409.132 599.921 406.72 594.013 409.402 589.386C412.064 584.793 418.031 583.476 422.576 580.721C427.137 577.957 431.077 573.371 436.402 573.019C441.741 572.667 446.056 577.265 451.171 578.832Z" fill="#2F462D"/>
<path d="M463.009 286.159C465.774 287.007 469.2 286.139 471.385 288.03C473.57 289.921 473.471 293.315 474.426 296.039C475.304 298.543 476.553 300.9 476.822 303.539C477.102 306.282 477.189 309.182 476.021 311.68C474.86 314.165 472.45 315.765 470.308 317.481C468.266 319.117 466.203 320.798 463.696 321.555C461.221 322.303 458.611 321.907 456.027 321.795C453.36 321.678 450.633 321.881 448.159 320.878C445.588 319.835 443.326 318.088 441.579 315.934C439.811 313.754 438.352 311.186 438.037 308.398C437.729 305.669 439.445 303.168 439.831 300.449C440.238 297.582 438.932 294.382 440.384 291.876C441.827 289.388 445.059 288.675 447.52 287.182C449.991 285.685 452.125 283.201 455.009 283.01C457.901 282.819 460.239 285.31 463.009 286.159Z" fill="#2F462D"/>
<path d="M31.4219 587.969C34.896 589.034 39.1996 587.944 41.9452 590.32C44.6906 592.696 44.5656 596.959 45.7656 600.382C46.8688 603.529 48.4387 606.489 48.777 609.806C49.1285 613.252 49.2371 616.895 47.7702 620.034C46.3118 623.156 43.2832 625.166 40.5921 627.322C38.0264 629.378 35.4343 631.49 32.285 632.441C29.1755 633.38 25.8954 632.883 22.6496 632.742C19.2987 632.596 15.8717 632.851 12.7645 631.59C9.5335 630.28 6.69125 628.084 4.49704 625.379C2.27482 622.64 0.441686 619.413 0.0462561 615.911C-0.340851 612.482 1.81499 609.339 2.30038 605.923C2.8121 602.321 1.17068 598.3 2.99579 595.152C4.8077 592.026 8.86864 591.13 11.9616 589.255C15.0655 587.373 17.747 584.252 21.3708 584.013C25.0042 583.773 27.9411 586.902 31.4219 587.969Z" fill="#2F462D"/>
<path d="M295.87 80.2479C299.242 81.5003 303.21 81.2541 306.047 83.4622C308.933 85.7086 311.007 89.0868 311.804 92.6516C312.583 96.1367 310.812 99.608 310.452 103.161C310.107 106.563 310.76 110.025 309.711 113.28C308.591 116.756 306.932 120.194 304.185 122.607C301.412 125.043 297.81 126.639 294.131 126.964C290.57 127.278 287.253 125.459 283.839 124.402C280.778 123.454 277.831 122.428 274.951 121.025C271.801 119.491 268.139 118.501 266.011 115.722C263.869 112.925 263.816 109.128 263.187 105.665C262.547 102.14 261.511 98.5795 262.263 95.0773C263.025 91.5265 265.244 88.508 267.485 85.6465C269.75 82.7525 272.191 79.8845 275.467 78.2106C278.747 76.5344 282.525 75.7203 286.192 76.0864C289.726 76.4393 292.542 79.0114 295.87 80.2479Z" fill="#2F462D"/>
<path d="M219.87 112.248C223.242 113.5 227.21 113.254 230.047 115.462C232.933 117.709 235.007 121.087 235.804 124.652C236.583 128.137 234.812 131.608 234.452 135.161C234.107 138.563 234.76 142.025 233.711 145.28C232.591 148.756 230.932 152.194 228.185 154.607C225.412 157.043 221.81 158.639 218.131 158.964C214.57 159.278 211.253 157.459 207.839 156.402C204.778 155.454 201.831 154.428 198.951 153.025C195.801 151.491 192.139 150.501 190.011 147.722C187.869 144.925 187.816 141.128 187.187 137.665C186.547 134.14 185.511 130.579 186.263 127.077C187.025 123.527 189.244 120.508 191.485 117.647C193.75 114.752 196.191 111.884 199.467 110.211C202.747 108.534 206.525 107.72 210.192 108.086C213.726 108.439 216.542 111.011 219.87 112.248Z" fill="#2F462D"/>
<path d="M332.751 622.497C336.852 625.996 342.565 627.709 345.421 632.267C348.326 636.904 349.505 642.704 348.792 648.102C348.094 653.379 343.814 657.315 341.477 662.096C339.239 666.675 338.376 671.855 335.222 675.863C331.855 680.144 327.75 684.092 322.641 686.041C317.483 688.01 311.592 688.376 306.245 686.923C301.071 685.516 297.339 681.253 293.078 678.005C289.257 675.093 285.638 672.13 282.306 668.676C278.662 664.898 274.018 661.615 272.453 656.625C270.879 651.604 272.759 646.267 273.658 641.098C274.572 635.838 274.947 630.321 277.809 625.814C280.71 621.243 285.389 618.173 290.016 615.333C294.695 612.46 299.608 609.715 305.08 609.072C310.561 608.428 316.298 609.248 321.271 611.661C326.064 613.986 328.703 619.043 332.751 622.497Z" fill="#2F462D"/>
<path d="M449.031 393.581C453.414 395.226 458.574 394.902 462.261 397.803C466.013 400.754 468.709 405.193 469.745 409.876C470.758 414.454 468.456 419.014 467.987 423.682C467.539 428.151 468.388 432.699 467.024 436.976C465.568 441.543 463.411 446.059 459.84 449.229C456.235 452.428 451.553 454.526 446.77 454.953C442.14 455.365 437.829 452.976 433.39 451.587C429.411 450.341 425.581 448.993 421.836 447.151C417.741 445.136 412.981 443.835 410.214 440.183C407.429 436.509 407.361 431.521 406.543 426.971C405.712 422.341 404.364 417.663 405.342 413.062C406.332 408.398 409.218 404.432 412.13 400.673C415.075 396.871 418.248 393.103 422.507 390.904C426.771 388.702 431.683 387.633 436.449 388.114C441.044 388.577 444.704 391.956 449.031 393.581Z" fill="#2F462D"/>
<path d="M120.87 567.248C124.242 568.5 128.21 568.254 131.047 570.462C133.933 572.709 136.007 576.087 136.804 579.652C137.583 583.137 135.812 586.608 135.452 590.161C135.107 593.563 135.76 597.025 134.711 600.28C133.591 603.756 131.932 607.194 129.185 609.607C126.412 612.043 122.81 613.639 119.131 613.964C115.57 614.278 112.253 612.459 108.839 611.402C105.778 610.454 102.831 609.428 99.9508 608.025C96.8006 606.491 93.139 605.501 91.0105 602.722C88.8688 599.925 88.8159 596.128 88.1872 592.665C87.5474 589.14 86.5109 585.579 87.2627 582.077C88.025 578.527 90.2444 575.508 92.4845 572.647C94.7501 569.752 97.1911 566.884 100.467 565.211C103.747 563.534 107.525 562.72 111.192 563.086C114.726 563.439 117.542 566.011 120.87 567.248Z" fill="#2F462D"/>
</svg>
