<svg width="1561" height="379" viewBox="0 0 1561 379" fill="none" xmlns="http://www.w3.org/2000/svg">
<rect y="188.907" width="159.547" height="11.1312" fill="white"/>
<rect y="211.169" width="159.547" height="11.1312" fill="white"/>
<rect y="318.771" width="159.547" height="11.1312" fill="white"/>
<rect y="341.033" width="159.547" height="11.1312" fill="white"/>
<rect y="363.296" width="159.547" height="11.1312" fill="white"/>
<rect y="233.432" width="159.547" height="11.1312" fill="white"/>
<rect x="63.0935" y="321.052" width="122.488" height="11.4148" transform="rotate(-43.767 63.0935 321.052)" fill="white"/>
<rect x="31.7219" y="319.887" width="124.986" height="11.1312" transform="rotate(-43.767 31.7219 319.887)" fill="white"/>
<rect x="0.288086" y="318.793" width="125.363" height="12.0186" transform="rotate(-42.838 0.288086 318.793)" fill="white"/>
<circle cx="256.009" cy="281.667" r="24.1176" stroke="white" stroke-width="11.1312"/>
<circle cx="256.009" cy="281.668" r="46.3801" stroke="white" stroke-width="11.1312"/>
<circle cx="256.009" cy="281.668" r="68.6425" stroke="white" stroke-width="11.1312"/>
<circle cx="256.009" cy="281.667" r="90.9049" stroke="white" stroke-width="11.1312"/>
<circle cx="441.53" cy="281.667" r="24.1176" stroke="white" stroke-width="11.1312"/>
<circle cx="441.53" cy="281.667" r="46.3801" stroke="white" stroke-width="11.1312"/>
<circle cx="441.53" cy="281.668" r="68.6425" stroke="white" stroke-width="11.1312"/>
<circle cx="441.529" cy="281.667" r="90.9049" stroke="white" stroke-width="11.1312"/>
<path fill-rule="evenodd" clip-rule="evenodd" d="M25.639 159.883C31.7435 147.081 54.9406 125.318 98.8931 140.68C142.846 156.042 173.536 165.689 181.304 167.564C196.004 171.114 230.751 173.325 249.064 173.325C255.724 173.325 266.442 173.325 276.534 159.883L276.553 159.848C289.432 135.861 310.393 96.8218 350.663 86.2788C352.587 85.5913 358.14 86.8139 356.788 87.8794C337.836 89.754 312.381 103.886 291.185 139.1C291.185 139.1 285.839 147.572 279.681 160.807C275.63 169.513 265.236 182.008 254.558 191.923C232.627 212.287 267.378 216.519 285.691 209.811C305.836 181.953 347.591 125.702 382.753 134.919C380.922 140.68 373.963 153.738 360.777 159.883C347.591 166.028 347.957 181.953 351.62 188.688C360.777 199.236 382.021 197.905 393.741 181.007L415.717 131.078C420.601 122.117 435.862 106.883 457.839 117.636C465.164 125.318 475.786 134.535 496.297 125.318C504.843 123.397 524.134 116.484 532.924 104.194C541.715 91.9041 529.261 77.3097 521.936 71.5488C513.39 65.7879 499.861 55.2124 496.297 48.5051C493.06 42.4138 477.983 32.1689 466.995 29.302C462.135 27.705 455.059 26.3645 446.701 24.7814C429.864 21.5922 407.829 17.4183 388.247 8.17854C358.945 -5.6477 283.09 -0.298036 250.896 12.0192C205.722 29.302 123.76 72.9802 113.544 79.23C104.127 84.9911 94.3822 81.639 91.5677 79.23C72.6437 74.1092 27.8366 87.2954 0 181.007C5.49406 180.366 18.3135 175.246 25.639 159.883ZM475.747 64.1199C478.284 64.1199 480.341 62.0631 480.341 59.526C480.341 56.9889 478.284 54.9322 475.747 54.9322C473.21 54.9322 471.153 56.9889 471.153 59.526C471.153 62.0631 473.21 64.1199 475.747 64.1199Z" fill="white"/>
<path d="M630.3 62V177.619C630.3 188.361 632.669 196.653 637.406 202.495C642.326 208.337 649.706 211.258 659.546 211.258C669.386 211.258 676.766 208.337 681.686 202.495C686.788 196.465 689.34 188.172 689.34 177.619V62H742.913V177.619C742.913 195.899 739.177 211.541 731.706 224.545C724.235 237.36 714.031 247.065 701.093 253.661C688.337 260.069 674.124 263.273 658.453 263.273C642.782 263.273 628.751 260.069 616.36 253.661C604.151 247.065 594.493 237.36 587.387 224.545C580.462 211.73 577 196.088 577 177.619V62H630.3Z" fill="white"/>
<path d="M933.128 261.294H879.555L808.216 149.915V261.294H754.642V62H808.216L879.555 174.792V62H933.128V261.294Z" fill="white"/>
<path d="M1067.79 228.785H999.452L989.065 261.294H932.759L1003.01 62H1064.78L1134.75 261.294H1078.17L1067.79 228.785ZM1054.39 186.382L1033.62 121.93L1013.12 186.382H1054.39Z" fill="white"/>
<path d="M1359.4 62V261.294H1305.83V151.329L1269.47 261.294H1224.65L1188.02 150.481V261.294H1134.45V62H1199.23L1249.44 168.305L1294.89 62H1359.4Z" fill="white"/>
<path d="M1494.03 228.785H1425.7L1415.31 261.294H1359.01L1429.25 62H1491.03L1561 261.294H1504.42L1494.03 228.785ZM1480.64 186.382L1459.87 121.93L1439.37 186.382H1480.64Z" fill="white"/>
<path d="M594.324 354.415C591.595 354.415 589.182 353.941 587.086 352.991C585.029 352.042 583.407 350.717 582.221 349.016C581.034 347.316 580.401 345.417 580.322 343.321H584.713C584.91 345.338 585.8 347.118 587.382 348.661C588.964 350.163 591.278 350.915 594.324 350.915C597.132 350.915 599.347 350.203 600.968 348.779C602.629 347.316 603.46 345.477 603.46 343.262C603.46 341.482 603.005 340.058 602.096 338.99C601.186 337.883 600.059 337.072 598.714 336.558C597.369 336.004 595.51 335.411 593.137 334.778C590.368 334.026 588.173 333.295 586.552 332.583C584.93 331.871 583.546 330.763 582.399 329.26C581.252 327.758 580.678 325.721 580.678 323.15C580.678 321.014 581.232 319.115 582.339 317.454C583.447 315.754 585.009 314.429 587.026 313.479C589.043 312.53 591.357 312.056 593.968 312.056C597.804 312.056 600.889 313.005 603.223 314.903C605.596 316.762 606.96 319.175 607.316 322.141H602.807C602.531 320.44 601.601 318.937 600.019 317.632C598.437 316.288 596.301 315.615 593.612 315.615C591.12 315.615 589.043 316.288 587.382 317.632C585.721 318.937 584.891 320.737 584.891 323.031C584.891 324.771 585.345 326.175 586.255 327.243C587.165 328.311 588.292 329.122 589.637 329.676C591.021 330.229 592.88 330.823 595.214 331.456C597.903 332.207 600.078 332.959 601.74 333.71C603.401 334.422 604.805 335.529 605.952 337.032C607.099 338.535 607.672 340.552 607.672 343.084C607.672 345.022 607.158 346.861 606.13 348.601C605.101 350.341 603.579 351.746 601.562 352.813C599.544 353.881 597.132 354.415 594.324 354.415ZM642.691 344.152H623.825L620.206 354H615.816L630.944 313.064H635.631L650.7 354H646.31L642.691 344.152ZM641.445 340.711L633.258 318.285L625.071 340.711H641.445ZM691.597 354H687.444L664.485 319.115V354H660.332V312.53H664.485L687.444 347.355V312.53H691.597V354ZM728.235 312.53V315.971H716.725V354H712.572V315.971H701.004V312.53H728.235ZM761.786 344.152H742.92L739.301 354H734.911L750.04 313.064H754.726L769.796 354H765.405L761.786 344.152ZM760.541 340.711L752.353 318.285L744.166 340.711H760.541ZM801.497 354L791.233 336.676H783.58V354H779.427V312.53H791.886C796.513 312.53 800.014 313.638 802.387 315.852C804.799 318.067 806.006 320.974 806.006 324.574C806.006 327.58 805.136 330.15 803.395 332.286C801.695 334.382 799.163 335.747 795.801 336.38L806.48 354H801.497ZM783.58 333.295H791.945C795.188 333.295 797.621 332.504 799.242 330.922C800.904 329.34 801.734 327.224 801.734 324.574C801.734 321.845 800.943 319.748 799.361 318.285C797.779 316.782 795.287 316.03 791.886 316.03H783.58V333.295ZM821.366 315.912V331.396H837.088V334.837H821.366V350.559H838.868V354H817.213V312.471H838.868V315.912H821.366ZM832.698 303.512L820.536 310.572V307.369L832.698 299.775V303.512ZM890.538 313.064V354H886.385V321.311L871.791 354H868.765L854.17 321.429V354H850.017V313.064H854.408L870.248 348.542L886.088 313.064H890.538ZM942.284 330.269V333.769H919.206V330.269H942.284ZM999.177 344.152H980.311L976.692 354H972.302L987.43 313.064H992.117L1007.19 354H1002.8L999.177 344.152ZM997.931 340.711L989.744 318.285L981.557 340.711H997.931ZM1057.34 313.064V354H1053.19V321.311L1038.59 354H1035.57L1020.97 321.429V354H1016.82V313.064H1021.21L1037.05 348.542L1052.89 313.064H1057.34ZM1093.75 344.152H1074.89L1071.27 354H1066.88L1082.01 313.064H1086.69L1101.76 354H1097.37L1093.75 344.152ZM1092.51 340.711L1084.32 318.285L1076.13 340.711H1092.51ZM1114.06 350.322H1135.24V354H1109.2V350.678L1130.08 316.208H1109.55V312.53H1134.95V315.852L1114.06 350.322ZM1164.16 354.415C1160.32 354.415 1156.84 353.525 1153.72 351.746C1150.59 349.926 1148.12 347.415 1146.3 344.211C1144.52 340.968 1143.63 337.309 1143.63 333.235C1143.63 329.162 1144.52 325.523 1146.3 322.319C1148.12 319.076 1150.59 316.564 1153.72 314.785C1156.84 312.965 1160.32 312.056 1164.16 312.056C1168.04 312.056 1171.54 312.965 1174.66 314.785C1177.78 316.564 1180.24 319.076 1182.02 322.319C1183.8 325.523 1184.69 329.162 1184.69 333.235C1184.69 337.309 1183.8 340.968 1182.02 344.211C1180.24 347.415 1177.78 349.926 1174.66 351.746C1171.54 353.525 1168.04 354.415 1164.16 354.415ZM1164.16 350.796C1167.24 350.796 1170.01 350.084 1172.47 348.661C1174.92 347.237 1176.86 345.2 1178.28 342.55C1179.7 339.86 1180.42 336.755 1180.42 333.235C1180.42 329.715 1179.7 326.63 1178.28 323.98C1176.86 321.33 1174.92 319.293 1172.47 317.87C1170.01 316.446 1167.24 315.734 1164.16 315.734C1161.07 315.734 1158.31 316.446 1155.85 317.87C1153.4 319.293 1151.46 321.33 1150.04 323.98C1148.62 326.63 1147.9 329.715 1147.9 333.235C1147.9 336.755 1148.62 339.86 1150.04 342.55C1151.46 345.2 1153.4 347.237 1155.85 348.661C1158.31 350.084 1161.07 350.796 1164.16 350.796ZM1164.46 304.64L1156.51 309.623V306.241L1164.46 301.377L1172.41 306.241V309.623L1164.46 304.64ZM1226.52 354H1222.36L1199.4 319.115V354H1195.25V312.53H1199.4L1222.36 347.355V312.53H1226.52V354ZM1243.04 312.53V354H1238.89V312.53H1243.04ZM1279.44 344.152H1260.58L1256.96 354H1252.57L1267.69 313.064H1272.38L1287.45 354H1283.06L1279.44 344.152ZM1278.2 340.711L1270.01 318.285L1261.82 340.711H1278.2ZM1336.44 330.269V333.769H1313.36V330.269H1336.44ZM1388.71 332.583C1391.04 333.018 1393.02 334.204 1394.64 336.142C1396.26 338.08 1397.07 340.335 1397.07 342.906C1397.07 345.002 1396.54 346.9 1395.47 348.601C1394.44 350.262 1392.92 351.587 1390.9 352.576C1388.88 353.525 1386.47 354 1383.66 354H1369.31V312.53H1383.25C1387.44 312.53 1390.62 313.499 1392.8 315.437C1395.01 317.375 1396.12 319.887 1396.12 322.972C1396.12 325.543 1395.43 327.639 1394.05 329.26C1392.66 330.843 1390.88 331.95 1388.71 332.583ZM1373.46 330.862H1383.13C1385.94 330.862 1388.09 330.21 1389.6 328.904C1391.14 327.56 1391.91 325.721 1391.91 323.387C1391.91 321.093 1391.14 319.293 1389.6 317.988C1388.09 316.683 1385.88 316.03 1382.95 316.03H1373.46V330.862ZM1383.37 350.5C1386.37 350.5 1388.71 349.788 1390.37 348.364C1392.07 346.94 1392.92 344.982 1392.92 342.49C1392.92 339.999 1392.03 338.021 1390.25 336.558C1388.51 335.055 1386.16 334.303 1383.19 334.303H1373.46V350.5H1383.37ZM1429.74 354L1419.48 336.676H1411.82V354H1407.67V312.53H1420.13C1424.76 312.53 1428.26 313.638 1430.63 315.852C1433.04 318.067 1434.25 320.974 1434.25 324.574C1434.25 327.58 1433.38 330.15 1431.64 332.286C1429.94 334.382 1427.41 335.747 1424.05 336.38L1434.73 354H1429.74ZM1411.82 333.295H1420.19C1423.43 333.295 1425.87 332.504 1427.49 330.922C1429.15 329.34 1429.98 327.224 1429.98 324.574C1429.98 321.845 1429.19 319.748 1427.61 318.285C1426.02 316.782 1423.53 316.03 1420.13 316.03H1411.82V333.295ZM1469.49 344.152H1450.62L1447 354H1442.61L1457.74 313.064H1462.43L1477.5 354H1473.11L1469.49 344.152ZM1468.24 340.711L1460.05 318.285L1451.87 340.711H1468.24ZM1499.7 354.415C1496.98 354.415 1494.56 353.941 1492.47 352.991C1490.41 352.042 1488.79 350.717 1487.6 349.016C1486.41 347.316 1485.78 345.417 1485.7 343.321H1490.09C1490.29 345.338 1491.18 347.118 1492.76 348.661C1494.34 350.163 1496.66 350.915 1499.7 350.915C1502.51 350.915 1504.73 350.203 1506.35 348.779C1508.01 347.316 1508.84 345.477 1508.84 343.262C1508.84 341.482 1508.39 340.058 1507.48 338.99C1506.57 337.883 1505.44 337.072 1504.09 336.558C1502.75 336.004 1500.89 335.411 1498.52 334.778C1495.75 334.026 1493.55 333.295 1491.93 332.583C1490.31 331.871 1488.93 330.763 1487.78 329.26C1486.63 327.758 1486.06 325.721 1486.06 323.15C1486.06 321.014 1486.61 319.115 1487.72 317.454C1488.83 315.754 1490.39 314.429 1492.41 313.479C1494.42 312.53 1496.74 312.056 1499.35 312.056C1503.18 312.056 1506.27 313.005 1508.6 314.903C1510.98 316.762 1512.34 319.175 1512.7 322.141H1508.19C1507.91 320.44 1506.98 318.937 1505.4 317.632C1503.82 316.288 1501.68 315.615 1498.99 315.615C1496.5 315.615 1494.42 316.288 1492.76 317.632C1491.1 318.937 1490.27 320.737 1490.27 323.031C1490.27 324.771 1490.73 326.175 1491.64 327.243C1492.55 328.311 1493.67 329.122 1495.02 329.676C1496.4 330.229 1498.26 330.823 1500.59 331.456C1503.28 332.207 1505.46 332.959 1507.12 333.71C1508.78 334.422 1510.19 335.529 1511.33 337.032C1512.48 338.535 1513.05 340.552 1513.05 343.084C1513.05 345.022 1512.54 346.861 1511.51 348.601C1510.48 350.341 1508.96 351.746 1506.94 352.813C1504.92 353.881 1502.51 354.415 1499.7 354.415ZM1528.2 312.53V354H1524.04V312.53H1528.2ZM1544.72 350.618H1559.61V354H1540.57V312.53H1544.72V350.618Z" fill="white"/>
</svg>
