<svg width="35" height="35" viewBox="0 0 35 35" fill="none" xmlns="http://www.w3.org/2000/svg">
<path d="M30.625 14.5835C30.625 24.7918 17.5 33.5418 17.5 33.5418C17.5 33.5418 4.375 24.7918 4.375 14.5835C4.375 11.1025 5.75781 7.76413 8.21922 5.30272C10.6806 2.8413 14.019 1.4585 17.5 1.4585C20.981 1.4585 24.3194 2.8413 26.7808 5.30272C29.2422 7.76413 30.625 11.1025 30.625 14.5835Z" stroke="white" stroke-width="2.91667" stroke-linecap="round" stroke-linejoin="round"/>
<path d="M17.5 18.9585C19.9162 18.9585 21.875 16.9997 21.875 14.5835C21.875 12.1673 19.9162 10.2085 17.5 10.2085C15.0838 10.2085 13.125 12.1673 13.125 14.5835C13.125 16.9997 15.0838 18.9585 17.5 18.9585Z" stroke="white" stroke-width="2.91667" stroke-linecap="round" stroke-linejoin="round"/>
</svg>
